<?xml version="1.0" encoding="utf-8"?>
<!-- Generator: Adobe Illustrator 16.0.0, SVG Export Plug-In . SVG Version: 6.00 Build 0)  -->
<!DOCTYPE svg PUBLIC "-//W3C//DTD SVG 1.1//EN" "http://www.w3.org/Graphics/SVG/1.1/DTD/svg11.dtd">
<svg version="1.1" id="图层_1" xmlns="http://www.w3.org/2000/svg" xmlns:xlink="http://www.w3.org/1999/xlink" x="0px" y="0px"
	 width="193.294px" height="208.615px" viewBox="48.169 4.352 193.294 208.615"
	 enable-background="new 48.169 4.352 193.294 208.615" xml:space="preserve">
<path fill="#65A131" d="M119.47,6.814c0,0-61.701,5.866-69.607,59.175c-3.521,23.773-6.86,113.813,48.641,136.84
	c81.991,34.028,154.027-21.236,141.546-107.64C235.297,62.304,227.603-9.848,119.47,6.814"/>
<g>
	<path fill="#FFFFFF" d="M177.217,141.573h5.838v7.367c0,6.313,1.29,8.345,6.99,8.345h8.852v-6.375h-7.565
		c-1.02,0-1.15-0.274-1.15-1.97v-7.367h8.678v-6.65h-36.296v6.65h7.661c-0.508,5.624-0.251,6.42-7.661,10.2v7.271
		C175.779,153.798,176.348,150.732,177.217,141.573z"/>
	<path fill="#FFFFFF" d="M166.643,130.248h27.768v-0.03l0.046,0.03c0,0,2.356-0.329,3.054-1.376v-6.541c0,0-1.222,0.822-3.054,1.242
		c-0.015,0-0.028,0.008-0.046,0.014v-0.014h-27.768c-1.832-0.42-3.05-1.242-3.05-1.242v6.541
		C164.285,129.919,166.643,130.248,166.643,130.248z"/>
	<path fill="#FFFFFF" d="M114.106,64.692V53.619h17.283v-0.043l0.051,0.043c0,0,1.787,0.06,3.515-0.205l0,0
		c0,0,3.146-0.376,3.146-4.25c0-0.006,0-0.009,0-0.009v-5.518c-1.415,1.162-2.517,1.433-6.748,1.561H88.689
		c-1.136,0-2.063,0.178-2.832,0.428c-0.158,0.045-0.307,0.102-0.445,0.16c-0.008,0.001-0.017,0.008-0.027,0.008
		c-2.189,0.961-2.3,3.363-2.3,3.76v6.098c2.482-2.301,5.794-2.033,5.794-2.033h16.535v11.073h-9.633l0.166,0.06h-9.318
		c-1.134,0-2.066,0.18-2.83,0.428c-0.157,0.045-0.31,0.096-0.446,0.16c-0.013,0.008-0.024,0.008-0.029,0.01
		c-2.188,0.964-2.294,3.365-2.3,3.756v6.099c2.33-2.153,5.38-2.116,5.754-2.104v0.01h0.04h11.309h6.818
		c-1.893,7.527-8.792,16.479-21.339,21.084c0.001,0.006,0.001,0.006,0.001,0.006h0.002c-1.5,0.573-2.57,2.02-2.57,3.721
		c0,2.205,1.789,3.994,3.995,3.994c0.472,0,0.923-0.084,1.349-0.234v0.004c0,0,0,0.012,0,0.022
		c13.062-5.01,21.141-12.325,24.467-20.178c5.259,10.854,15.104,18.091,28.12,21.778v-8.67
		c-11.503-3.713-19.873-11.823-23.692-21.528h5.882l0.037,0.01h11.997v-0.01h0.045l0.015,0.01c0,0,1.783,0.056,3.513-0.21l0,0
		c0,0,3.146-0.368,3.146-4.247c0-0.009,0-0.009,0-0.017v-5.51c-1.415,1.166-2.514,1.439-6.749,1.559h-19.049l0,0H114.106
		L114.106,64.692z"/>
	<path fill="#FFFFFF" d="M184.112,64.692V53.619h17.286v-0.043l0.063,0.043c0,0,1.776,0.06,3.506-0.205l0,0
		c0,0,3.146-0.376,3.146-4.25c0-0.006,0-0.009,0-0.009v-5.518c-1.415,1.162-2.52,1.433-6.749,1.561h-42.661
		c-1.139,0-2.065,0.178-2.833,0.428c-0.154,0.045-0.312,0.102-0.438,0.16c-0.018,0.001-0.022,0.008-0.039,0.008
		c-2.188,0.961-2.297,3.363-2.297,3.76v6.098c2.482-2.301,5.796-2.033,5.796-2.033h16.536v11.073h-9.638l0.173,0.06h-9.32
		c-1.137,0-2.069,0.18-2.836,0.428c-0.153,0.045-0.31,0.096-0.448,0.16c-0.01,0.008-0.017,0.008-0.028,0.01
		c-2.188,0.964-2.298,3.365-2.298,3.756v6.099c2.327-2.153,5.379-2.116,5.751-2.104v0.01h0.04h11.313h6.814
		c-1.897,7.527-8.796,16.479-21.335,21.084l0.005,0.006l0,0c-1.502,0.573-2.572,2.02-2.572,3.721c0,2.205,1.791,3.994,3.988,3.994
		c0.474,0,0.933-0.084,1.353-0.234v0.004c0,0,0,0.012,0,0.022c13.061-5.01,21.146-12.325,24.469-20.178
		c5.258,10.854,15.11,18.091,28.117,21.778v-8.67c-11.494-3.713-19.871-11.823-23.684-21.528h5.873l0.039,0.01h12.011v-0.01h0.033
		l0.017,0.01c0,0,1.785,0.056,3.513-0.21l0,0c0,0,3.146-0.368,3.146-4.247c0-0.009,0-0.009,0-0.017v-5.51
		c-1.409,1.166-2.516,1.439-6.745,1.559H184.112L184.112,64.692L184.112,64.692z"/>
	<path fill="#FFFFFF" d="M131.265,143.212v-0.004h-18.54v-4.563h19.447c-0.04-0.01-0.067-0.021-0.067-0.021s4.525-0.162,4.525-4.992
		v-24.25c-1.074,1.291-8.476,1.435-8.476,1.435H88.206c-8.493,0-8.063,5.429-8.063,5.429v18.309c0,0,0.006,0.024,0.014,0.06v5.671
		c1.748-1.154,3.938-1.535,5.063-1.65c0.164,0.006,0.313,0.016,0.462,0.016h18.658v4.566H85.175v0.023h-1.323
		c-1.132,0-2.069,0.176-2.827,0.425c-0.164,0.052-0.311,0.103-0.45,0.165c-0.01,0-0.021,0.004-0.026,0.01
		c-2.191,0.961-2.3,3.363-2.308,3.758v4.435c2.328-2.159,5.388-2.11,5.757-2.101v0.074l0.037-0.069h1.141v0.012h14.7
		c-4.195,3.854-10.225,7.128-19.63,9.956c0.028,0.014,0.056,0.018,0.056,0.018v0.008c-1.522,0.433-2.64,1.82-2.64,3.481
		c0,1.995,1.617,3.611,3.616,3.611c0.439,0,0.848-0.077,1.237-0.216c8.162-2.485,16.504-5.848,21.824-11.281v14.48h8.385v-14.961
		c6.359,6.495,17.073,10.537,26.114,13.019v-7.277c-7.133-2.319-16.896-6.832-21.364-10.838h13.791v-0.021h0.859v-0.016h0.042
		l0.015,0.016c0,0,1.786,0.055,3.513-0.203v-0.012c0,0,3.146-0.371,3.146-4.252c0-0.006,0-0.008,0-0.012v-3.788
		c-1.412,1.164-2.518,1.438-6.748,1.556h-0.826L131.265,143.212L131.265,143.212z M112.725,117.696h15.445v3.805h-15.445V117.696z
		 M112.725,127.892h15.445v3.875h-15.445V127.892z M104.341,131.767h-16.08v-3.875h16.08V131.767z M104.341,121.501h-16.08v-3.805
		h16.08V121.501z"/>
	<path fill="#FFFFFF" d="M201.232,111.033h-44.282c-5.08,0-5.437,4.474-5.455,5.409v48.563c0,0,0.01,0.066,0.02,0.185
		c-0.01,0.137-0.02,0.241-0.02,0.304v5.686c2.028-1.338,4.658-1.646,5.512-1.685h2.567h41.86h3.074c0,0,1.11,0.144,2.321-0.292
		c0.966-0.29,2.053-0.955,2.57-2.441c0.313-0.748,0.512-1.703,0.512-2.908v-54.241C209.914,111.292,201.232,111.033,201.232,111.033
		z M202.803,162.854h-44.6v-45.021h44.6V162.854z"/>
</g>
</svg>
