<?xml version="1.0" encoding="utf-8"?>
<!-- Generator: Adobe Illustrator 15.0.0, SVG Export Plug-In . SVG Version: 6.00 Build 0)  -->
<!DOCTYPE svg PUBLIC "-//W3C//DTD SVG 1.1//EN" "http://www.w3.org/Graphics/SVG/1.1/DTD/svg11.dtd">
<svg version="1.1" id="图层_1" xmlns="http://www.w3.org/2000/svg" xmlns:xlink="http://www.w3.org/1999/xlink" x="0px" y="0px"
	 width="323px" height="216px" viewBox="0 0 323 216" enable-background="new 0 0 323 216" xml:space="preserve">
<path fill="#FFFFFF" d="M76.47,3.462c0,0-61.7,5.866-69.606,59.175c-3.522,23.773-6.861,113.812,48.64,136.839
	c81.992,34.029,154.028-21.236,141.546-107.639C192.297,58.952,184.603-13.2,76.47,3.462"/>
<g>
	<path fill="#6AA143" d="M134.217,138.221h5.838v7.367c0,6.313,1.29,8.346,6.99,8.346h8.853v-6.375h-7.565
		c-1.02,0-1.151-0.275-1.151-1.971v-7.367h8.679v-6.65h-36.296v6.65h7.66c-0.508,5.625-0.251,6.42-7.66,10.201v7.27
		C132.779,150.445,133.348,147.381,134.217,138.221z"/>
	<path fill="#6AA143" d="M123.643,126.896h27.769v-0.031l0.046,0.031c0,0,2.355-0.33,3.053-1.377v-6.541
		c0,0-1.221,0.822-3.053,1.242c-0.015,0-0.029,0.008-0.046,0.014v-0.014h-27.769c-1.832-0.42-3.05-1.242-3.05-1.242v6.541
		C121.286,126.566,123.643,126.896,123.643,126.896z"/>
	<path fill="#6AA143" d="M71.106,61.34V50.267h17.282v-0.043l0.052,0.043c0,0,1.786,0.06,3.515-0.205l0,0
		c0,0,3.146-0.376,3.146-4.25c0-0.006,0-0.009,0-0.009v-5.518c-1.415,1.162-2.517,1.433-6.748,1.561H45.689
		c-1.137,0-2.063,0.178-2.832,0.428c-0.158,0.045-0.308,0.102-0.445,0.16c-0.008,0.001-0.018,0.008-0.028,0.008
		c-2.188,0.961-2.299,3.363-2.299,3.76v6.098c2.482-2.301,5.793-2.033,5.793-2.033h16.536v11.073h-9.633l0.166,0.06h-9.319
		c-1.133,0-2.066,0.18-2.83,0.428c-0.157,0.045-0.309,0.096-0.446,0.16c-0.013,0.008-0.023,0.008-0.028,0.01
		c-2.188,0.964-2.294,3.365-2.3,3.756v6.099c2.329-2.153,5.38-2.116,5.754-2.104v0.01h0.04h11.309h6.818
		c-1.894,7.527-8.792,16.479-21.339,21.083c0.001,0.006,0.001,0.006,0.001,0.006h0.002c-1.5,0.574-2.57,2.02-2.57,3.721
		c0,2.205,1.789,3.994,3.995,3.994c0.471,0,0.923-0.084,1.348-0.234v0.004c0,0,0,0.012,0,0.023
		c13.063-5.01,21.141-12.326,24.467-20.178c5.26,10.854,15.105,18.09,28.12,21.778v-8.67C84.465,87.571,76.095,79.46,72.276,69.755
		h5.882l0.037,0.01h11.997v-0.01h0.045l0.014,0.01c0,0,1.784,0.056,3.513-0.21l0,0c0,0,3.146-0.368,3.146-4.247
		c0-0.009,0-0.009,0-0.017v-5.51c-1.415,1.166-2.514,1.439-6.749,1.559H71.112l0,0H71.106L71.106,61.34z"/>
	<path fill="#6AA143" d="M141.112,61.34V50.267h17.286v-0.043l0.062,0.043c0,0,1.777,0.06,3.506-0.205l0,0
		c0,0,3.146-0.376,3.146-4.25c0-0.006,0-0.009,0-0.009v-5.518c-1.415,1.162-2.521,1.433-6.749,1.561h-42.661
		c-1.139,0-2.066,0.178-2.833,0.428c-0.155,0.045-0.313,0.102-0.439,0.16c-0.017,0.001-0.021,0.008-0.039,0.008
		c-2.187,0.961-2.297,3.363-2.297,3.76v6.098c2.483-2.301,5.796-2.033,5.796-2.033h16.536v11.073h-9.637l0.172,0.06h-9.32
		c-1.137,0-2.068,0.18-2.836,0.428c-0.152,0.045-0.309,0.096-0.447,0.16c-0.011,0.008-0.018,0.008-0.028,0.01
		c-2.188,0.964-2.298,3.365-2.298,3.756v6.099c2.327-2.153,5.379-2.116,5.751-2.104v0.01h0.04h11.312h6.815
		c-1.898,7.527-8.796,16.479-21.335,21.083l0.005,0.006l0,0c-1.502,0.574-2.573,2.02-2.573,3.721c0,2.205,1.791,3.994,3.989,3.994
		c0.473,0,0.932-0.084,1.352-0.234v0.004c0,0,0,0.012,0,0.023c13.062-5.01,21.146-12.326,24.47-20.178
		c5.258,10.854,15.109,18.09,28.116,21.778v-8.67c-11.493-3.712-19.871-11.823-23.684-21.528h5.874l0.039,0.01h12.01v-0.01h0.034
		l0.016,0.01c0,0,1.785,0.056,3.514-0.21l0,0c0,0,3.145-0.368,3.145-4.247c0-0.009,0-0.009,0-0.017v-5.51
		c-1.409,1.166-2.515,1.439-6.745,1.559H141.112L141.112,61.34L141.112,61.34z"/>
	<path fill="#6AA143" d="M88.265,139.859v-0.004h-18.54v-4.563h19.447c-0.04-0.01-0.066-0.021-0.066-0.021s4.524-0.162,4.524-4.992
		v-24.25c-1.074,1.291-8.475,1.436-8.475,1.436H45.207c-8.494,0-8.063,5.428-8.063,5.428v18.309c0,0,0.007,0.025,0.015,0.061v5.67
		c1.748-1.154,3.938-1.535,5.062-1.65c0.164,0.006,0.314,0.016,0.462,0.016H61.34v4.566H42.175v0.023h-1.323
		c-1.132,0-2.068,0.176-2.826,0.426c-0.164,0.051-0.312,0.102-0.45,0.164c-0.01,0-0.021,0.004-0.027,0.01
		c-2.19,0.961-2.299,3.363-2.307,3.758v4.436c2.328-2.16,5.387-2.111,5.757-2.102v0.074l0.037-0.068h1.14v0.012h14.701
		c-4.196,3.854-10.225,7.127-19.63,9.955c0.028,0.014,0.055,0.018,0.055,0.018v0.008c-1.521,0.434-2.639,1.82-2.639,3.482
		c0,1.994,1.617,3.611,3.616,3.611c0.438,0,0.848-0.078,1.236-0.217c8.162-2.484,16.504-5.848,21.824-11.281v14.48h8.385v-14.961
		c6.36,6.496,17.073,10.537,26.114,13.02v-7.277c-7.132-2.32-16.896-6.832-21.364-10.838h13.791v-0.021h0.86v-0.016h0.042
		l0.014,0.016c0,0,1.786,0.055,3.514-0.203v-0.012c0,0,3.146-0.371,3.146-4.252c0-0.006,0-0.008,0-0.012v-3.787
		c-1.412,1.164-2.517,1.438-6.748,1.555h-0.826L88.265,139.859L88.265,139.859z M69.725,114.344H85.17v3.805H69.725V114.344z
		 M69.725,124.539H85.17v3.875H69.725V124.539z M61.341,128.414h-16.08v-3.875h16.08V128.414z M61.341,118.148h-16.08v-3.805h16.08
		V118.148z"/>
	<path fill="#6AA143" d="M158.232,107.682H113.95c-5.08,0-5.438,4.473-5.455,5.408v48.563c0,0,0.009,0.066,0.019,0.186
		c-0.01,0.137-0.019,0.24-0.019,0.303v5.686c2.028-1.338,4.658-1.645,5.511-1.684h2.568h41.859h3.074c0,0,1.111,0.143,2.322-0.293
		c0.965-0.289,2.052-0.955,2.57-2.441c0.313-0.748,0.512-1.703,0.512-2.908v-54.24C166.915,107.939,158.232,107.682,158.232,107.682
		z M159.803,159.502h-44.599V114.48h44.599V159.502z"/>
</g>
<g>
	<path fill="#FFFFFF" d="M256.142,11.044c0,0-36.696-2.478-46.029,28.624c-4.101,13.265-10.667,80.9,25.339,91.566
		c7.064,2.334,22.538,8.084,44.061,4.334c22.936-3.996,36.268-23.529,37.729-63.49C317.942,52.893,319.347,11.011,256.142,11.044"/>
	<g>
		<path fill="#6AA143" d="M281.372,68.446V48.985h4.848v19.461H281.372z"/>
		<path fill="#6AA143" d="M301.896,64.336h-1.363c-1.155,0-1.685-0.635-1.685-1.753v-9.062h1.584l0,0h0.016h0.01
			c0,0,0.864,0.029,1.707-0.098l0,0c0,0,1.525-0.18,1.525-2.059c0,0,0.004,0,0.004-0.008v-2.676
			c-0.689,0.563-1.229,0.695-3.283,0.758h-1.561v-5.652H294v5.555h-0.438v0.003h-0.019l-0.009-0.003c0,0-0.862-0.021-1.706,0.102
			c0,0-1.526,0.186-1.526,2.065l0,0v2.678c0.687-0.561,1.223-0.692,3.276-0.753h0.416v9.448c0,2.767,1.685,5.563,5.642,5.563h2.649
			v-0.018c0.263-0.02,0.558-0.042,0.85-0.081l0,0c0,0,1.521-0.185,1.521-2.067l0.002-0.006v-2.678
			C304.03,64.106,303.531,64.263,301.896,64.336z"/>
		<path fill="#6AA143" d="M239.877,78.89c-1.732-1.731-4.204-2.508-6.937-2.508h-6.467c-2.637,0-2.985,1.813-3.021,2.501v23.775
			h9.487c2.729,0,5.2-0.781,6.937-2.512c2.953-2.953,2.661-6.789,2.661-10.74C242.538,85.461,242.83,81.849,239.877,78.89z
			 M236.3,96.455c-0.889,1.068-2.066,1.621-3.848,1.621h-3.866V80.956h3.866c1.779,0,2.959,0.552,3.848,1.621
			c0.959,1.187,1.108,2.845,1.108,6.83C237.409,93.396,237.259,95.275,236.3,96.455z"/>
		<path fill="#6AA143" d="M236.524,41.858v-0.013h-10.011c-2.697,0-2.965,2.007-2.978,2.62v23.982h5.186V57.645h5.981l0,0h1.218
			v-0.007h0.021l0.013,0.007c0,0,0.978,0.03,1.93-0.107l0,0c0,0,1.728-0.207,1.728-2.334V55.2v-3.025
			c-0.784,0.635-1.386,0.791-3.705,0.855h-1.196v-0.014h-5.981v-6.531h4.227l0.007,0.002h3.448v-0.002h0.021l0.008,0.002
			c0,0,0.979,0.028,1.931-0.119l0,0c0,0,1.722-0.205,1.722-2.325c0-0.007,0-0.007,0-0.007v-3.022
			C239.326,41.63,238.719,41.788,236.524,41.858z"/>
		<path fill="#6AA143" d="M256.635,48.985c0,1.601-3.768,1.687-3.768,1.687c-2.098,0-3.963,0.973-4.896,2.091v-1.676
			c-0.176-2.006-1.886-2.102-2.118-2.102h-2.629v19.461h4.856v-8.875c0-2.465,1.644-3.623,3.139-3.582
			C258.581,56.161,256.635,48.985,256.635,48.985z"/>
		<path fill="#6AA143" d="M273.477,48.985h-2.893v11.768c0,2.65-1.725,3.544-3.253,3.544c-1.536,0-3.214-0.896-3.214-3.544v-9.311
			c0-2.354-1.892-2.457-2.144-2.457h-2.717v12.433c0,2.134,0.413,3.966,1.979,5.54c1.086,1.082,2.656,1.713,4.6,1.713
			c1.795,0,3.584-0.671,4.852-2.012v0.104c0.014,0.389,0.178,1.686,1.837,1.686h2.918V50.616
			C275.202,49.134,273.846,48.991,273.477,48.985z"/>
		<path fill="#6AA143" d="M286.316,43.53c0,1.393-1.132,2.522-2.524,2.522c-1.397,0-2.518-1.132-2.518-2.522
			c0-1.399,1.118-2.517,2.518-2.517C285.185,41.012,286.316,42.129,286.316,43.53z"/>
		<path fill="#6AA143" d="M253.276,83.211c-3.216,0-5.058,0.589-6.938,2.656l1.415,1.384l0,0l0,0l0.109,0.104
			c0.306,0.271,1.271,0.952,2.872,0.375c0.174-0.084,0.355-0.17,0.555-0.229c0.005-0.011,0.021-0.011,0.026-0.011l0,0
			c0.479-0.149,1.054-0.221,1.776-0.221c2.544,0,3.572,0.922,3.572,3.029v0.953h-4.533c-4.474,0-6.577,2.516-6.577,5.574
			c0,1.699,0.56,3.248,1.598,4.318c1.14,1.143,2.723,1.701,4.899,1.701c2.209,0,3.434-0.561,4.731-1.85v0.035
			c0.023-0.092,0.057-0.143,0.057-0.143s-0.117,1.771,1.81,1.771h2.819V90.004C261.468,85.495,258.662,83.211,253.276,83.211z
			 M256.665,95.57c0,1.184-0.182,1.953-0.702,2.434c-0.848,0.811-1.702,0.924-3.023,0.924c-1.88,0-2.764-0.885-2.764-2.211
			c0-1.367,0.958-2.18,2.688-2.18h3.801V95.57L256.665,95.57z"/>
		<path fill="#6AA143" d="M279.618,83.431c-2.152,0-2.859,2.083-2.865,2.099l-3.166,9.783l-3.278-9.783l-0.002-0.01
			c-0.695-2.076-3.039-2.089-3.039-2.089h-2.722l6.571,17.862l-0.813,2.361c-0.477,1.4-1.035,1.732-2.396,1.732h-0.412
			c-2.979,0-2.951,3.572-2.951,3.572v0.744h4.135c1.595,0,3.031-0.371,4.136-1.467c0.59-0.604,1.026-1.41,1.441-2.479l8.229-22.325
			h-2.867L279.618,83.431L279.618,83.431z"/>
	</g>
</g>
</svg>
